<svg id="Layer_1" data-name="Layer 1" xmlns="http://www.w3.org/2000/svg" viewBox="0 0 150 50"><defs><style>.cls-1,.cls-3{fill:#008540;}.cls-2{fill:#1a475f;}.cls-3,.cls-4{fill-rule:evenodd;}.cls-4{fill:#f0bd1b;}</style></defs><title>bhes</title><path class="cls-1" d="M49.06,37H53.5v1H47.87V29.55h5.45v1H49.06v2.55h4v1h-4Z"/><path class="cls-1" d="M58.17,37.93A2.64,2.64,0,0,1,57,38.2,3,3,0,0,1,55.81,38a2.53,2.53,0,0,1-.89-.65,2.9,2.9,0,0,1-.58-1,3.23,3.23,0,0,1-.2-1.17,3.2,3.2,0,0,1,.2-1.17,3,3,0,0,1,.58-1,2.46,2.46,0,0,1,.91-.64A2.93,2.93,0,0,1,57,32.2a2.36,2.36,0,0,1,1.21.3,2.39,2.39,0,0,1,.82.71h0V29h1.13V38H59.08v-.9h0A2,2,0,0,1,58.17,37.93Zm-2.86-2.74a2.53,2.53,0,0,0,.12.77,2.12,2.12,0,0,0,.36.66,1.92,1.92,0,0,0,.59.46,1.86,1.86,0,0,0,.81.17,1.73,1.73,0,0,0,.79-.17,1.83,1.83,0,0,0,.61-.45A2.2,2.2,0,0,0,59,36a2.41,2.41,0,0,0,0-1.56,2.4,2.4,0,0,0-.39-.66,1.83,1.83,0,0,0-.61-.45,2,2,0,0,0-1.6,0,1.75,1.75,0,0,0-.59.45,1.92,1.92,0,0,0-.36.66A2.48,2.48,0,0,0,55.31,35.19Z"/><path class="cls-1" d="M62,38H60.72l3.68-8.49h1.08L69.13,38H67.78L66.92,36h-4Zm1.27-3.13h3.18l-1.58-4Z"/><path class="cls-1" d="M72.73,33.8a1.47,1.47,0,0,0-.54-.51,1.59,1.59,0,0,0-.78-.2,1.72,1.72,0,0,0-.39,0,1.26,1.26,0,0,0-.34.13.76.76,0,0,0-.24.23.62.62,0,0,0-.09.34.58.58,0,0,0,.33.54,3.94,3.94,0,0,0,1,.31,6.65,6.65,0,0,1,.75.23,2.52,2.52,0,0,1,.61.33,1.43,1.43,0,0,1,.4.48,1.31,1.31,0,0,1,.14.64,1.62,1.62,0,0,1-.7,1.43,2.12,2.12,0,0,1-.72.31,3.39,3.39,0,0,1-.84.1A3.3,3.3,0,0,1,70,38a2.52,2.52,0,0,1-1-.77l.8-.68a1.82,1.82,0,0,0,.63.56,1.78,1.78,0,0,0,.88.23,2.85,2.85,0,0,0,.42,0,1.22,1.22,0,0,0,.35-.14.78.78,0,0,0,.26-.25.72.72,0,0,0,.1-.4.64.64,0,0,0-.38-.59A4.8,4.8,0,0,0,71,35.51c-.19,0-.38-.1-.58-.17a1.92,1.92,0,0,1-.53-.28,1.41,1.41,0,0,1-.39-.45,1.38,1.38,0,0,1-.15-.67,1.61,1.61,0,0,1,.18-.78,1.7,1.7,0,0,1,.49-.54,2.24,2.24,0,0,1,.68-.32,3.49,3.49,0,0,1,.79-.1,3,3,0,0,1,1.18.24,2,2,0,0,1,.89.7Z"/><path class="cls-1" d="M77.55,33.8a1.47,1.47,0,0,0-.54-.51,1.56,1.56,0,0,0-.78-.2,1.58,1.58,0,0,0-.38,0,1.21,1.21,0,0,0-.35.13.76.76,0,0,0-.24.23.62.62,0,0,0-.09.34.58.58,0,0,0,.33.54,3.94,3.94,0,0,0,1,.31,6.65,6.65,0,0,1,.75.23,2.35,2.35,0,0,1,.61.33,1.39,1.39,0,0,1,.55,1.12,1.76,1.76,0,0,1-.2.86,1.55,1.55,0,0,1-.51.57,2.12,2.12,0,0,1-.72.31A3.44,3.44,0,0,1,74.84,38a2.52,2.52,0,0,1-1-.77l.8-.68a1.82,1.82,0,0,0,.63.56,1.78,1.78,0,0,0,.88.23,2.85,2.85,0,0,0,.42,0,1.42,1.42,0,0,0,.36-.14.85.85,0,0,0,.25-.25.72.72,0,0,0,.1-.4.64.64,0,0,0-.38-.59,4.8,4.8,0,0,0-1.11-.36c-.19,0-.38-.1-.58-.17a2.07,2.07,0,0,1-.53-.28,1.41,1.41,0,0,1-.39-.45,1.38,1.38,0,0,1-.15-.67,1.61,1.61,0,0,1,.18-.78,1.7,1.7,0,0,1,.49-.54,2.24,2.24,0,0,1,.68-.32,3.49,3.49,0,0,1,.79-.1,3,3,0,0,1,1.19.24,1.93,1.93,0,0,1,.88.7Z"/><path class="cls-1" d="M80.63,30.31a.64.64,0,0,1-.22.51.76.76,0,0,1-.54.21.72.72,0,0,1-.52-.21.71.71,0,0,1,0-1,.72.72,0,0,1,.52-.21.76.76,0,0,1,.54.21A.67.67,0,0,1,80.63,30.31ZM80.44,38H79.31V32.36h1.13Z"/><path class="cls-1" d="M85,33.8a1.47,1.47,0,0,0-.54-.51,1.56,1.56,0,0,0-.78-.2,1.64,1.64,0,0,0-.38,0,1.15,1.15,0,0,0-.34.13.76.76,0,0,0-.24.23.62.62,0,0,0-.09.34.59.59,0,0,0,.32.54,4.1,4.1,0,0,0,1,.31,6.84,6.84,0,0,1,.76.23,2.45,2.45,0,0,1,.6.33,1.35,1.35,0,0,1,.41.48,1.44,1.44,0,0,1,.14.64,1.62,1.62,0,0,1-.7,1.43,2.18,2.18,0,0,1-.73.31,3.33,3.33,0,0,1-.84.1A3.26,3.26,0,0,1,82.27,38a2.55,2.55,0,0,1-1-.77l.81-.68a1.82,1.82,0,0,0,.63.56,1.75,1.75,0,0,0,.88.23,2.71,2.71,0,0,0,.41,0,1.42,1.42,0,0,0,.36-.14.89.89,0,0,0,.26-.25.82.82,0,0,0,.09-.4.63.63,0,0,0-.37-.59,5.15,5.15,0,0,0-1.11-.36c-.19,0-.39-.1-.58-.17a2,2,0,0,1-.54-.28,1.41,1.41,0,0,1-.39-.45,1.38,1.38,0,0,1-.15-.67,1.5,1.5,0,0,1,.19-.78,1.56,1.56,0,0,1,.48-.54,2.19,2.19,0,0,1,.69-.32,3.42,3.42,0,0,1,.79-.1,3,3,0,0,1,1.18.24,1.93,1.93,0,0,1,.88.7Z"/><path class="cls-1" d="M89.51,33.28H88v3a1.11,1.11,0,0,0,.2.74.75.75,0,0,0,.61.22l.33,0a1.6,1.6,0,0,0,.33-.11l0,.92a2.44,2.44,0,0,1-.45.12,4.06,4.06,0,0,1-.51,0,1.63,1.63,0,0,1-1.22-.44,1.85,1.85,0,0,1-.43-1.34V33.28H85.79v-.92h1.09V30.73H88v1.63h1.52Z"/><path class="cls-1" d="M96.94,31.12a1.92,1.92,0,0,0-.68-.57,2.2,2.2,0,0,0-1-.22,2.32,2.32,0,0,0-.58.08,1.48,1.48,0,0,0-.54.25,1.45,1.45,0,0,0-.39.43,1.21,1.21,0,0,0-.15.62,1.13,1.13,0,0,0,.14.58,1.28,1.28,0,0,0,.37.4,2.17,2.17,0,0,0,.55.27l.68.24.88.3a3.27,3.27,0,0,1,.8.44,2,2,0,0,1,.82,1.74,2.6,2.6,0,0,1-.25,1.15,2.32,2.32,0,0,1-.65.8,2.82,2.82,0,0,1-1,.47,3.64,3.64,0,0,1-1.09.16A4,4,0,0,1,93.37,38,3.11,3.11,0,0,1,92.13,37l.93-.78a2.15,2.15,0,0,0,.8.72,2.19,2.19,0,0,0,1.09.28,2.47,2.47,0,0,0,.6-.08,1.88,1.88,0,0,0,.55-.27,1.58,1.58,0,0,0,.4-.45,1.33,1.33,0,0,0,.15-.65,1.15,1.15,0,0,0-.16-.64,1.32,1.32,0,0,0-.44-.44,2.93,2.93,0,0,0-.64-.31l-.77-.25a6,6,0,0,1-.8-.3,2.57,2.57,0,0,1-.71-.44,2,2,0,0,1-.51-.67,2.34,2.34,0,0,1-.19-1,2.17,2.17,0,0,1,.26-1.09,2.34,2.34,0,0,1,.67-.76,3,3,0,0,1,.94-.44,4.19,4.19,0,0,1,1-.13,3.58,3.58,0,0,1,1.39.26,2.74,2.74,0,0,1,1,.71Z"/><path class="cls-1" d="M104.74,35.19a3,3,0,0,1-.24,1.21,2.75,2.75,0,0,1-.64,1,3.05,3.05,0,0,1-1,.63,3.46,3.46,0,0,1-1.21.22,3.42,3.42,0,0,1-1.21-.22,3,3,0,0,1-1-.63,2.89,2.89,0,0,1-.64-1,3.3,3.3,0,0,1,0-2.42,2.83,2.83,0,0,1,1.62-1.56,3.42,3.42,0,0,1,1.21-.22,3.46,3.46,0,0,1,1.21.22,3.2,3.2,0,0,1,1,.62,2.9,2.9,0,0,1,.64.94A3,3,0,0,1,104.74,35.19Zm-1.18,0a2.54,2.54,0,0,0-.12-.78,2,2,0,0,0-.37-.65,1.75,1.75,0,0,0-.59-.45,1.78,1.78,0,0,0-.81-.17,1.73,1.73,0,0,0-.81.17,1.69,1.69,0,0,0-.6.45,1.79,1.79,0,0,0-.36.65,2.4,2.4,0,0,0,0,1.56,1.92,1.92,0,0,0,.36.66,1.69,1.69,0,0,0,.6.45,1.73,1.73,0,0,0,.81.17,1.78,1.78,0,0,0,.81-.17,1.75,1.75,0,0,0,.59-.45,2.13,2.13,0,0,0,.37-.66A2.54,2.54,0,0,0,103.56,35.19Z"/><path class="cls-1" d="M106.94,38h-1.12V29h1.12Z"/><path class="cls-1" d="M112.41,38q0-.21,0-.48c0-.18,0-.33,0-.45h0a1.82,1.82,0,0,1-.72.77,2.13,2.13,0,0,1-1.14.32,2.33,2.33,0,0,1-1-.18,1.75,1.75,0,0,1-.66-.5,2.08,2.08,0,0,1-.38-.74,2.92,2.92,0,0,1-.13-.9V32.36h1.13V35.5a4.91,4.91,0,0,0,.05.67,1.57,1.57,0,0,0,.2.55,1.15,1.15,0,0,0,.4.39,1.32,1.32,0,0,0,.64.14,1.37,1.37,0,0,0,1.11-.51,2.07,2.07,0,0,0,.42-1.36v-3h1.12v4.46c0,.15,0,.35,0,.59s0,.45,0,.63Z"/><path class="cls-1" d="M117.67,33.28h-1.51v3a1.11,1.11,0,0,0,.19.74.76.76,0,0,0,.61.22l.34,0a1.51,1.51,0,0,0,.32-.11l0,.92a3,3,0,0,1-.45.12,4.38,4.38,0,0,1-.51,0,1.63,1.63,0,0,1-1.23-.44,1.85,1.85,0,0,1-.43-1.34V33.28H114v-.92H115V30.73h1.12v1.63h1.51Z"/><path class="cls-1" d="M119.66,30.31a.67.67,0,0,1-.22.51.76.76,0,0,1-.54.21.7.7,0,0,1-.52-.21.71.71,0,0,1,0-1,.7.7,0,0,1,.52-.21.76.76,0,0,1,.54.21A.71.71,0,0,1,119.66,30.31ZM119.47,38h-1.13V32.36h1.13Z"/><path class="cls-1" d="M126.69,35.19a3,3,0,0,1-.24,1.21,2.75,2.75,0,0,1-.64,1,3.05,3.05,0,0,1-1,.63,3.46,3.46,0,0,1-1.21.22,3.38,3.38,0,0,1-1.21-.22,3,3,0,0,1-1-.63,2.89,2.89,0,0,1-.64-1,3.3,3.3,0,0,1,0-2.42,2.83,2.83,0,0,1,1.62-1.56,3.38,3.38,0,0,1,1.21-.22,3.46,3.46,0,0,1,1.21.22,3.2,3.2,0,0,1,1,.62,2.9,2.9,0,0,1,.64.94A3,3,0,0,1,126.69,35.19Zm-1.18,0a2.54,2.54,0,0,0-.12-.78,2,2,0,0,0-.37-.65,1.75,1.75,0,0,0-.59-.45,1.78,1.78,0,0,0-.81-.17,1.73,1.73,0,0,0-.81.17,1.69,1.69,0,0,0-.6.45,1.79,1.79,0,0,0-.36.65,2.41,2.41,0,0,0,0,1.56,1.92,1.92,0,0,0,.36.66,1.69,1.69,0,0,0,.6.45,1.73,1.73,0,0,0,.81.17,1.78,1.78,0,0,0,.81-.17,1.75,1.75,0,0,0,.59-.45,2.13,2.13,0,0,0,.37-.66A2.54,2.54,0,0,0,125.51,35.19Z"/><path class="cls-1" d="M128.76,32.36c0,.14,0,.3,0,.48s0,.33,0,.45h0a1.66,1.66,0,0,1,.29-.42,2.12,2.12,0,0,1,.43-.35,1.87,1.87,0,0,1,.52-.23,2,2,0,0,1,.6-.09,2.12,2.12,0,0,1,.95.19,1.93,1.93,0,0,1,.66.5,1.84,1.84,0,0,1,.39.73,3.26,3.26,0,0,1,.13.9V38h-1.13V34.89a3.52,3.52,0,0,0-.06-.66,1.56,1.56,0,0,0-.19-.55,1.15,1.15,0,0,0-.4-.39,1.47,1.47,0,0,0-1.74.37,2,2,0,0,0-.43,1.36v3h-1.13V33.58c0-.15,0-.35,0-.59s0-.45,0-.63Z"/><path class="cls-1" d="M137.29,33.8a1.47,1.47,0,0,0-.54-.51,1.56,1.56,0,0,0-.78-.2,1.58,1.58,0,0,0-.38,0,1.21,1.21,0,0,0-.35.13.76.76,0,0,0-.24.23.62.62,0,0,0-.09.34.58.58,0,0,0,.33.54,3.94,3.94,0,0,0,1,.31,7.55,7.55,0,0,1,.76.23,2.45,2.45,0,0,1,.6.33,1.39,1.39,0,0,1,.55,1.12,1.88,1.88,0,0,1-.19.86,1.75,1.75,0,0,1-.51.57,2.27,2.27,0,0,1-.73.31,3.44,3.44,0,0,1-2.11-.15,2.52,2.52,0,0,1-1-.77l.8-.68a1.82,1.82,0,0,0,.63.56,1.78,1.78,0,0,0,.88.23,2.72,2.72,0,0,0,.42,0,1.42,1.42,0,0,0,.36-.14.89.89,0,0,0,.26-.25.82.82,0,0,0,.09-.4.62.62,0,0,0-.38-.59,4.8,4.8,0,0,0-1.11-.36c-.19,0-.38-.1-.58-.17a2.07,2.07,0,0,1-.53-.28,1.41,1.41,0,0,1-.39-.45,1.38,1.38,0,0,1-.15-.67,1.5,1.5,0,0,1,.19-.78,1.56,1.56,0,0,1,.48-.54,2.24,2.24,0,0,1,.68-.32,3.5,3.5,0,0,1,.8-.1,3,3,0,0,1,1.18.24,1.93,1.93,0,0,1,.88.7Z"/><path class="cls-2" d="M51.86,22.94h-4V12.79h4c1.58,0,3.45.56,3.45,2.61a2.23,2.23,0,0,1-1.66,2.19v0A2.34,2.34,0,0,1,55.73,20C55.73,22.19,53.8,22.94,51.86,22.94Zm-.47-8.2h-1.2v2.09H51.5c.92,0,1.45-.38,1.45-1.1S52.42,14.74,51.39,14.74Zm.16,3.9H50.19V21h1.37c.77,0,1.72-.22,1.72-1.2S52.59,18.64,51.55,18.64Z"/><path class="cls-2" d="M61.24,17.72a2.13,2.13,0,0,0-.6-.07A1.61,1.61,0,0,0,59,19.27v3.67H56.62V15.8h2.26v1h0a2.16,2.16,0,0,1,1.93-1.23,1.83,1.83,0,0,1,.51.06Z"/><path class="cls-2" d="M62.89,14.81a1.3,1.3,0,0,1-1.34-1.29,1.35,1.35,0,0,1,2.69,0A1.31,1.31,0,0,1,62.89,14.81Zm-1.17,8.13V15.8h2.35v7.14Z"/><path class="cls-2" d="M68.69,26.37A6.55,6.55,0,0,1,65,25.26l1.17-1.68a3.66,3.66,0,0,0,2.37.9,1.82,1.82,0,0,0,2-2v-.43h0a2.66,2.66,0,0,1-2.16,1A3.4,3.4,0,0,1,65,19.34a3.46,3.46,0,0,1,3.39-3.74,2.68,2.68,0,0,1,2.28,1.12h0V15.8h2.22v6.46C72.89,25.06,71.23,26.37,68.69,26.37Zm.23-8.85a1.67,1.67,0,0,0-1.67,1.81,1.7,1.7,0,0,0,1.67,1.82,1.82,1.82,0,0,0,0-3.63Z"/><path class="cls-2" d="M78.85,22.94V19.07c0-.8-.2-1.51-1-1.51s-1.28.68-1.28,1.52v3.86H74.18V12.11h2.35V16.7h0a2.32,2.32,0,0,1,2-1.1c1.93,0,2.61,1.49,2.61,2.92v4.42Z"/><path class="cls-2" d="M84.94,17.56v2.73c0,.65.22,1,.89,1a1.88,1.88,0,0,0,.69-.12l0,1.72a4.2,4.2,0,0,1-1.36.22,2.22,2.22,0,0,1-2.53-2.54v-3H81.5V15.8h1.13V13.93h2.31V15.8h1.68v1.76Z"/><path class="cls-2" d="M96.63,22.94V18.7H92.68v4.24H90.23V12.79h2.45v3.84h3.95V12.79h2.45V22.94Z"/><path class="cls-2" d="M104,23.17a3.78,3.78,0,0,1-4-3.83,4,4,0,0,1,7.93,0A3.78,3.78,0,0,1,104,23.17Zm0-5.65a1.69,1.69,0,0,0-1.68,1.82,1.7,1.7,0,1,0,3.38,0A1.71,1.71,0,0,0,104,17.52Z"/><path class="cls-2" d="M113.52,17.72a2.13,2.13,0,0,0-.6-.07,1.62,1.62,0,0,0-1.68,1.62v3.67h-2.35V15.8h2.27v1h0a2.15,2.15,0,0,1,1.93-1.23,1.7,1.7,0,0,1,.5.06Z"/><path class="cls-2" d="M115.17,14.81a1.31,1.31,0,0,1-1.35-1.29,1.35,1.35,0,0,1,2.7,0A1.31,1.31,0,0,1,115.17,14.81ZM114,22.94V15.8h2.35v7.14Z"/><path class="cls-2" d="M117.17,22.94V21.1l3.36-3.49H117.3V15.8h6.09v1.76l-3.45,3.56h3.59v1.82Z"/><path class="cls-2" d="M127.93,23.17a3.77,3.77,0,0,1-4-3.83,4,4,0,0,1,7.92,0A3.78,3.78,0,0,1,127.93,23.17Zm0-5.65a1.69,1.69,0,0,0-1.67,1.82,1.7,1.7,0,1,0,3.38,0A1.71,1.71,0,0,0,127.93,17.52Z"/><path class="cls-2" d="M137.47,22.94V19c0-.79-.21-1.5-1.06-1.5s-1.26.71-1.26,1.53v3.87h-2.36V15.8h2.28v1h0a2.43,2.43,0,0,1,2.13-1.19c1.92,0,2.61,1.49,2.61,2.92v4.42Z"/><path class="cls-2" d="M145.21,17.91a2.22,2.22,0,0,0-1.49-.65c-.44,0-.89.16-.89.58s.39.51,1.31.71c1.08.25,2.27.79,2.27,2.18,0,1.8-1.59,2.44-3,2.44a4.6,4.6,0,0,1-3.11-1.11l1.32-1.39a2.42,2.42,0,0,0,1.75.8c.39,0,.84-.15.84-.61s-.44-.59-1.41-.82-2.08-.73-2.08-2.08c0-1.7,1.6-2.39,3-2.39a4.29,4.29,0,0,1,2.87,1Z"/><path class="cls-2" d="M149,22a.84.84,0,0,1-.07.35.92.92,0,0,1-.19.28,1,1,0,0,1-.29.19.91.91,0,0,1-.7,0,1,1,0,0,1-.29-.19,1,1,0,0,1-.2-.28.91.91,0,0,1,0-.7,1,1,0,0,1,.2-.29,1,1,0,0,1,.29-.19.91.91,0,0,1,.7,0,.85.85,0,0,1,.48.48A.84.84,0,0,1,149,22Zm-.14,0a.73.73,0,0,0-.06-.3,1,1,0,0,0-.16-.24.81.81,0,0,0-.24-.17.78.78,0,0,0-.6,0,.81.81,0,0,0-.24.17.78.78,0,0,0-.16.24.73.73,0,0,0-.06.3.72.72,0,0,0,.06.29.6.6,0,0,0,.16.24.81.81,0,0,0,.24.17.78.78,0,0,0,.6,0,.81.81,0,0,0,.24-.17.77.77,0,0,0,.22-.53Zm-.57.49-.2-.38H148v.38h-.28v-1h.44l.15,0,.14.05.1.1a.41.41,0,0,1,0,.16.35.35,0,0,1-.05.18.4.4,0,0,1-.15.1l.26.42Zm0-.7a.08.08,0,0,0-.05-.07.16.16,0,0,0-.09,0H148V22h.15a.17.17,0,0,0,.1,0A.13.13,0,0,0,148.27,21.83Z"/><path class="cls-3" d="M1,34.5c11,1.1,18.58-4.7,27.94-4.7,6.85,0,10.78,3,16,3.56v.23c-6.16.09-10-1.59-16.07-1.6-7.33,0-15.47,3.57-21.44,3.61-4.58,0-6.26-.83-6.44-.86V34.5Z"/><path class="cls-4" d="M19.59,20.59c-7.66,1.78-8.42,8.91-8.2,11.8.82-.18,1.67-.41,2.39-.63,0-2.6.89-7.4,6.42-8.75,5.77-1.41,9.07,3.11,10,5.54a12.74,12.74,0,0,1,2.49.27c0-1.9-4.51-10.23-13.14-8.23"/><path class="cls-4" d="M2.32,28.39c.05-.35.34-.83,1.15-.68,1.11.2,5.64,1.34,5.5,2-.08.37-.64.85-5.75-.16a1,1,0,0,1-.9-1.16"/><path class="cls-4" d="M6.86,18.55a.88.88,0,0,1,1.35-.2c1,.61,4.69,3.23,4.2,4-.06.1-.57.08-5.15-2.39a.94.94,0,0,1-.4-1.41"/><path class="cls-4" d="M18.23,11.76c.35-.09.94.11,1.1.92.23,1.11.85,5.58.05,5.7-.08,0-.28-.11-.59-.84s-.85-2.86-1.29-4.42a1.06,1.06,0,0,1,.73-1.36"/><path class="cls-4" d="M31.15,13.69c.37.2.69.74.15,1.45-.68.9-3,4.7-3.71,4.24-.06,0-.19-.37,0-1.14a25,25,0,0,1,2.17-4.11.94.94,0,0,1,1.39-.44"/><path class="cls-4" d="M39.31,21.05a.94.94,0,0,1-.53,1.4c-1,.5-4.88,2.69-5.27,2,0-.07,0-.41.6-.93a41,41,0,0,1,3.74-2.65,1,1,0,0,1,1.46.2"/></svg>